<svg width="109" height="78" viewBox="0 0 109 78" fill="none" xmlns="http://www.w3.org/2000/svg">
<g opacity="0.3">
<mask id="mask0_1_11" style="mask-type:alpha" maskUnits="userSpaceOnUse" x="0" y="0" width="11" height="8">
<path d="M5.23266 7.97735C7.96206 7.97735 10.1747 6.19152 10.1747 3.98865C10.1747 1.78577 7.96206 0 5.23266 0C2.50326 0 0.290649 1.78577 0.290649 3.98865C0.290649 6.19152 2.50326 7.97735 5.23266 7.97735Z" fill="url(#paint0_linear_1_11)"/>
</mask>
<g mask="url(#mask0_1_11)">
<path d="M5.23266 7.97735C7.96206 7.97735 10.1747 6.19152 10.1747 3.98865C10.1747 1.78577 7.96206 0 5.23266 0C2.50326 0 0.290649 1.78577 0.290649 3.98865C0.290649 6.19152 2.50326 7.97735 5.23266 7.97735Z" fill="url(#paint1_linear_1_11)"/>
</g>
<mask id="mask1_1_11" style="mask-type:alpha" maskUnits="userSpaceOnUse" x="28" y="0" width="11" height="8">
<path d="M33.8546 7.97735C36.584 7.97735 38.7966 6.19152 38.7966 3.98865C38.7966 1.78577 36.584 0 33.8546 0C31.1252 0 28.9126 1.78577 28.9126 3.98865C28.9126 6.19152 31.1252 7.97735 33.8546 7.97735Z" fill="url(#paint2_linear_1_11)"/>
</mask>
<g mask="url(#mask1_1_11)">
<path d="M33.855 7.97735C36.5844 7.97735 38.797 6.19152 38.797 3.98865C38.797 1.78577 36.5844 0 33.855 0C31.1256 0 28.913 1.78577 28.913 3.98865C28.913 6.19152 31.1256 7.97735 33.855 7.97735Z" fill="url(#paint3_linear_1_11)"/>
</g>
<mask id="mask2_1_11" style="mask-type:alpha" maskUnits="userSpaceOnUse" x="57" y="0" width="11" height="8">
<path d="M62.4766 7.97735C65.206 7.97735 67.4186 6.19152 67.4186 3.98865C67.4186 1.78577 65.206 0 62.4766 0C59.7472 0 57.5346 1.78577 57.5346 3.98865C57.5346 6.19152 59.7472 7.97735 62.4766 7.97735Z" fill="url(#paint4_linear_1_11)"/>
</mask>
<g mask="url(#mask2_1_11)">
<path d="M62.4773 7.97735C65.2067 7.97735 67.4193 6.19152 67.4193 3.98865C67.4193 1.78577 65.2067 0 62.4773 0C59.7479 0 57.5353 1.78577 57.5353 3.98865C57.5353 6.19152 59.7479 7.97735 62.4773 7.97735Z" fill="url(#paint5_linear_1_11)"/>
</g>
<mask id="mask3_1_11" style="mask-type:alpha" maskUnits="userSpaceOnUse" x="86" y="0" width="11" height="8">
<path d="M91.0985 7.97735C93.8279 7.97735 96.0405 6.19152 96.0405 3.98865C96.0405 1.78577 93.8279 0 91.0985 0C88.3691 0 86.1565 1.78577 86.1565 3.98865C86.1565 6.19152 88.3691 7.97735 91.0985 7.97735Z" fill="url(#paint6_linear_1_11)"/>
</mask>
<g mask="url(#mask3_1_11)">
<path d="M91.0991 7.97735C93.8285 7.97735 96.0411 6.19152 96.0411 3.98865C96.0411 1.78577 93.8285 0 91.0991 0C88.3697 0 86.1571 1.78577 86.1571 3.98865C86.1571 6.19152 88.3697 7.97735 91.0991 7.97735Z" fill="url(#paint7_linear_1_11)"/>
</g>
<mask id="mask4_1_11" style="mask-type:alpha" maskUnits="userSpaceOnUse" x="0" y="20" width="11" height="9">
<path d="M5.23266 28.0037C7.96206 28.0037 10.1747 26.2179 10.1747 24.015C10.1747 21.8122 7.96206 20.0264 5.23266 20.0264C2.50326 20.0264 0.290649 21.8122 0.290649 24.015C0.290649 26.2179 2.50326 28.0037 5.23266 28.0037Z" fill="url(#paint8_linear_1_11)"/>
</mask>
<g mask="url(#mask4_1_11)">
<path d="M5.23266 28.0037C7.96206 28.0037 10.1747 26.218 10.1747 24.0151C10.1747 21.8122 7.96206 20.0265 5.23266 20.0265C2.50326 20.0265 0.290649 21.8122 0.290649 24.0151C0.290649 26.218 2.50326 28.0037 5.23266 28.0037Z" fill="url(#paint9_linear_1_11)"/>
</g>
<mask id="mask5_1_11" style="mask-type:alpha" maskUnits="userSpaceOnUse" x="28" y="20" width="11" height="9">
<path d="M33.8546 28.0038C36.584 28.0038 38.7966 26.218 38.7966 24.0151C38.7966 21.8123 36.584 20.0265 33.8546 20.0265C31.1252 20.0265 28.9126 21.8123 28.9126 24.0151C28.9126 26.218 31.1252 28.0038 33.8546 28.0038Z" fill="url(#paint10_linear_1_11)"/>
</mask>
<g mask="url(#mask5_1_11)">
<path d="M33.855 28.0037C36.5844 28.0037 38.797 26.2179 38.797 24.0151C38.797 21.8122 36.5844 20.0264 33.855 20.0264C31.1256 20.0264 28.913 21.8122 28.913 24.0151C28.913 26.2179 31.1256 28.0037 33.855 28.0037Z" fill="url(#paint11_linear_1_11)"/>
</g>
<mask id="mask6_1_11" style="mask-type:alpha" maskUnits="userSpaceOnUse" x="57" y="20" width="11" height="9">
<path d="M62.4766 28.0038C65.206 28.0038 67.4186 26.218 67.4186 24.0151C67.4186 21.8123 65.206 20.0265 62.4766 20.0265C59.7472 20.0265 57.5346 21.8123 57.5346 24.0151C57.5346 26.218 59.7472 28.0038 62.4766 28.0038Z" fill="url(#paint12_linear_1_11)"/>
</mask>
<g mask="url(#mask6_1_11)">
<path d="M62.4773 28.0037C65.2067 28.0037 67.4193 26.2179 67.4193 24.0151C67.4193 21.8122 65.2067 20.0264 62.4773 20.0264C59.7479 20.0264 57.5353 21.8122 57.5353 24.0151C57.5353 26.2179 59.7479 28.0037 62.4773 28.0037Z" fill="url(#paint13_linear_1_11)"/>
</g>
<mask id="mask7_1_11" style="mask-type:alpha" maskUnits="userSpaceOnUse" x="86" y="20" width="11" height="9">
<path d="M91.0985 28.0038C93.8279 28.0038 96.0405 26.218 96.0405 24.0151C96.0405 21.8123 93.8279 20.0265 91.0985 20.0265C88.3691 20.0265 86.1565 21.8123 86.1565 24.0151C86.1565 26.218 88.3691 28.0038 91.0985 28.0038Z" fill="url(#paint14_linear_1_11)"/>
</mask>
<g mask="url(#mask7_1_11)">
<path d="M91.0991 28.0037C93.8285 28.0037 96.0411 26.2179 96.0411 24.0151C96.0411 21.8122 93.8285 20.0264 91.0991 20.0264C88.3697 20.0264 86.1571 21.8122 86.1571 24.0151C86.1571 26.2179 88.3697 28.0037 91.0991 28.0037Z" fill="url(#paint15_linear_1_11)"/>
</g>
<mask id="mask8_1_11" style="mask-type:alpha" maskUnits="userSpaceOnUse" x="0" y="40" width="11" height="8">
<path d="M5.23266 47.9887C7.96206 47.9887 10.1747 46.2029 10.1747 44C10.1747 41.7971 7.96206 40.0113 5.23266 40.0113C2.50326 40.0113 0.290649 41.7971 0.290649 44C0.290649 46.2029 2.50326 47.9887 5.23266 47.9887Z" fill="url(#paint16_linear_1_11)"/>
</mask>
<g mask="url(#mask8_1_11)">
<path d="M5.23266 47.9888C7.96206 47.9888 10.1747 46.203 10.1747 44.0001C10.1747 41.7972 7.96206 40.0114 5.23266 40.0114C2.50326 40.0114 0.290649 41.7972 0.290649 44.0001C0.290649 46.203 2.50326 47.9888 5.23266 47.9888Z" fill="url(#paint17_linear_1_11)"/>
</g>
<mask id="mask9_1_11" style="mask-type:alpha" maskUnits="userSpaceOnUse" x="28" y="40" width="11" height="8">
<path d="M33.8546 47.9889C36.584 47.9889 38.7966 46.2032 38.7966 44.0003C38.7966 41.7974 36.584 40.0116 33.8546 40.0116C31.1252 40.0116 28.9126 41.7974 28.9126 44.0003C28.9126 46.2032 31.1252 47.9889 33.8546 47.9889Z" fill="url(#paint18_linear_1_11)"/>
</mask>
<g mask="url(#mask9_1_11)">
<path d="M33.855 47.9888C36.5844 47.9888 38.797 46.203 38.797 44.0001C38.797 41.7972 36.5844 40.0114 33.855 40.0114C31.1256 40.0114 28.913 41.7972 28.913 44.0001C28.913 46.203 31.1256 47.9888 33.855 47.9888Z" fill="url(#paint19_linear_1_11)"/>
</g>
<mask id="mask10_1_11" style="mask-type:alpha" maskUnits="userSpaceOnUse" x="57" y="40" width="11" height="8">
<path d="M62.4766 47.9889C65.206 47.9889 67.4186 46.2032 67.4186 44.0003C67.4186 41.7974 65.206 40.0116 62.4766 40.0116C59.7472 40.0116 57.5346 41.7974 57.5346 44.0003C57.5346 46.2032 59.7472 47.9889 62.4766 47.9889Z" fill="url(#paint20_linear_1_11)"/>
</mask>
<g mask="url(#mask10_1_11)">
<path d="M62.4773 47.9888C65.2067 47.9888 67.4193 46.203 67.4193 44.0001C67.4193 41.7972 65.2067 40.0114 62.4773 40.0114C59.7479 40.0114 57.5353 41.7972 57.5353 44.0001C57.5353 46.203 59.7479 47.9888 62.4773 47.9888Z" fill="url(#paint21_linear_1_11)"/>
</g>
<mask id="mask11_1_11" style="mask-type:alpha" maskUnits="userSpaceOnUse" x="86" y="40" width="11" height="8">
<path d="M91.0985 47.9889C93.8279 47.9889 96.0405 46.2032 96.0405 44.0003C96.0405 41.7974 93.8279 40.0116 91.0985 40.0116C88.3691 40.0116 86.1565 41.7974 86.1565 44.0003C86.1565 46.2032 88.3691 47.9889 91.0985 47.9889Z" fill="url(#paint22_linear_1_11)"/>
</mask>
<g mask="url(#mask11_1_11)">
<path d="M91.0991 47.9888C93.8285 47.9888 96.0411 46.203 96.0411 44.0001C96.0411 41.7972 93.8285 40.0114 91.0991 40.0114C88.3697 40.0114 86.1571 41.7972 86.1571 44.0001C86.1571 46.203 88.3697 47.9888 91.0991 47.9888Z" fill="url(#paint23_linear_1_11)"/>
</g>
<mask id="mask12_1_11" style="mask-type:alpha" maskUnits="userSpaceOnUse" x="0" y="60" width="11" height="9">
<path d="M5.23266 68.0155C7.96206 68.0155 10.1747 66.2296 10.1747 64.0268C10.1747 61.8239 7.96206 60.0381 5.23266 60.0381C2.50326 60.0381 0.290649 61.8239 0.290649 64.0268C0.290649 66.2296 2.50326 68.0155 5.23266 68.0155Z" fill="url(#paint24_linear_1_11)"/>
</mask>
<g mask="url(#mask12_1_11)">
<path d="M5.23266 68.0152C7.96206 68.0152 10.1747 66.2294 10.1747 64.0265C10.1747 61.8236 7.96206 60.0379 5.23266 60.0379C2.50326 60.0379 0.290649 61.8236 0.290649 64.0265C0.290649 66.2294 2.50326 68.0152 5.23266 68.0152Z" fill="url(#paint25_linear_1_11)"/>
</g>
<mask id="mask13_1_11" style="mask-type:alpha" maskUnits="userSpaceOnUse" x="28" y="60" width="11" height="9">
<path d="M33.8546 68.0155C36.584 68.0155 38.7966 66.2296 38.7966 64.0268C38.7966 61.8239 36.584 60.0381 33.8546 60.0381C31.1252 60.0381 28.9126 61.8239 28.9126 64.0268C28.9126 66.2296 31.1252 68.0155 33.8546 68.0155Z" fill="url(#paint26_linear_1_11)"/>
</mask>
<g mask="url(#mask13_1_11)">
<path d="M33.855 68.0152C36.5844 68.0152 38.797 66.2294 38.797 64.0265C38.797 61.8236 36.5844 60.0379 33.855 60.0379C31.1256 60.0379 28.913 61.8236 28.913 64.0265C28.913 66.2294 31.1256 68.0152 33.855 68.0152Z" fill="url(#paint27_linear_1_11)"/>
</g>
<mask id="mask14_1_11" style="mask-type:alpha" maskUnits="userSpaceOnUse" x="57" y="60" width="11" height="9">
<path d="M62.4766 68.0155C65.206 68.0155 67.4186 66.2296 67.4186 64.0268C67.4186 61.8239 65.206 60.0381 62.4766 60.0381C59.7472 60.0381 57.5346 61.8239 57.5346 64.0268C57.5346 66.2296 59.7472 68.0155 62.4766 68.0155Z" fill="url(#paint28_linear_1_11)"/>
</mask>
<g mask="url(#mask14_1_11)">
<path d="M62.4773 68.0152C65.2067 68.0152 67.4193 66.2294 67.4193 64.0265C67.4193 61.8236 65.2067 60.0379 62.4773 60.0379C59.7479 60.0379 57.5353 61.8236 57.5353 64.0265C57.5353 66.2294 59.7479 68.0152 62.4773 68.0152Z" fill="url(#paint29_linear_1_11)"/>
</g>
<mask id="mask15_1_11" style="mask-type:alpha" maskUnits="userSpaceOnUse" x="86" y="60" width="11" height="9">
<path d="M91.0985 68.0155C93.8279 68.0155 96.0405 66.2296 96.0405 64.0268C96.0405 61.8239 93.8279 60.0381 91.0985 60.0381C88.3691 60.0381 86.1565 61.8239 86.1565 64.0268C86.1565 66.2296 88.3691 68.0155 91.0985 68.0155Z" fill="url(#paint30_linear_1_11)"/>
</mask>
<g mask="url(#mask15_1_11)">
<path d="M91.0991 68.0152C93.8285 68.0152 96.0411 66.2294 96.0411 64.0265C96.0411 61.8236 93.8285 60.0379 91.0991 60.0379C88.3697 60.0379 86.1571 61.8236 86.1571 64.0265C86.1571 66.2294 88.3697 68.0152 91.0991 68.0152Z" fill="url(#paint31_linear_1_11)"/>
</g>
</g>
<defs>
<linearGradient id="paint0_linear_1_11" x1="48.4211" y1="92.4707" x2="2.05332" y2="-53.3645" gradientUnits="userSpaceOnUse">
<stop stop-color="#FFA434"/>
<stop offset="1" stop-color="#FFA434"/>
</linearGradient>
<linearGradient id="paint1_linear_1_11" x1="48.4211" y1="92.4707" x2="2.05332" y2="-53.3645" gradientUnits="userSpaceOnUse">
<stop stop-color="#FFA434"/>
<stop offset="1" stop-color="#FFA434"/>
</linearGradient>
<linearGradient id="paint2_linear_1_11" x1="77.0431" y1="92.4707" x2="30.6754" y2="-53.3646" gradientUnits="userSpaceOnUse">
<stop stop-color="#FFA434"/>
<stop offset="1" stop-color="#FFA434"/>
</linearGradient>
<linearGradient id="paint3_linear_1_11" x1="77.0434" y1="92.4707" x2="30.6757" y2="-53.3646" gradientUnits="userSpaceOnUse">
<stop stop-color="#FFA434"/>
<stop offset="1" stop-color="#FFA434"/>
</linearGradient>
<linearGradient id="paint4_linear_1_11" x1="105.665" y1="92.4707" x2="59.2974" y2="-53.3646" gradientUnits="userSpaceOnUse">
<stop stop-color="#FFA434"/>
<stop offset="1" stop-color="#FFA434"/>
</linearGradient>
<linearGradient id="paint5_linear_1_11" x1="105.666" y1="92.4707" x2="59.2981" y2="-53.3646" gradientUnits="userSpaceOnUse">
<stop stop-color="#FFA434"/>
<stop offset="1" stop-color="#FFA434"/>
</linearGradient>
<linearGradient id="paint6_linear_1_11" x1="134.287" y1="92.4707" x2="87.9193" y2="-53.3646" gradientUnits="userSpaceOnUse">
<stop stop-color="#FFA434"/>
<stop offset="1" stop-color="#FFA434"/>
</linearGradient>
<linearGradient id="paint7_linear_1_11" x1="134.288" y1="92.4707" x2="87.9199" y2="-53.3646" gradientUnits="userSpaceOnUse">
<stop stop-color="#FFA434"/>
<stop offset="1" stop-color="#FFA434"/>
</linearGradient>
<linearGradient id="paint8_linear_1_11" x1="48.4211" y1="112.496" x2="2.05415" y2="-33.3379" gradientUnits="userSpaceOnUse">
<stop stop-color="#FFA434"/>
<stop offset="1" stop-color="#FFA434"/>
</linearGradient>
<linearGradient id="paint9_linear_1_11" x1="48.4211" y1="112.496" x2="2.05415" y2="-33.3378" gradientUnits="userSpaceOnUse">
<stop stop-color="#FFA434"/>
<stop offset="1" stop-color="#FFA434"/>
</linearGradient>
<linearGradient id="paint10_linear_1_11" x1="77.0431" y1="112.496" x2="30.6762" y2="-33.3378" gradientUnits="userSpaceOnUse">
<stop stop-color="#FFA434"/>
<stop offset="1" stop-color="#FFA434"/>
</linearGradient>
<linearGradient id="paint11_linear_1_11" x1="77.0434" y1="112.496" x2="30.6766" y2="-33.3379" gradientUnits="userSpaceOnUse">
<stop stop-color="#FFA434"/>
<stop offset="1" stop-color="#FFA434"/>
</linearGradient>
<linearGradient id="paint12_linear_1_11" x1="105.665" y1="112.496" x2="59.2982" y2="-33.3378" gradientUnits="userSpaceOnUse">
<stop stop-color="#FFA434"/>
<stop offset="1" stop-color="#FFA434"/>
</linearGradient>
<linearGradient id="paint13_linear_1_11" x1="105.666" y1="112.496" x2="59.2989" y2="-33.3379" gradientUnits="userSpaceOnUse">
<stop stop-color="#FFA434"/>
<stop offset="1" stop-color="#FFA434"/>
</linearGradient>
<linearGradient id="paint14_linear_1_11" x1="134.287" y1="112.496" x2="87.9201" y2="-33.3378" gradientUnits="userSpaceOnUse">
<stop stop-color="#FFA434"/>
<stop offset="1" stop-color="#FFA434"/>
</linearGradient>
<linearGradient id="paint15_linear_1_11" x1="134.288" y1="112.496" x2="87.9207" y2="-33.3379" gradientUnits="userSpaceOnUse">
<stop stop-color="#FFA434"/>
<stop offset="1" stop-color="#FFA434"/>
</linearGradient>
<linearGradient id="paint16_linear_1_11" x1="48.4211" y1="132.482" x2="2.05332" y2="-13.3532" gradientUnits="userSpaceOnUse">
<stop stop-color="#FFA434"/>
<stop offset="1" stop-color="#FFA434"/>
</linearGradient>
<linearGradient id="paint17_linear_1_11" x1="48.4211" y1="132.482" x2="2.05332" y2="-13.3531" gradientUnits="userSpaceOnUse">
<stop stop-color="#FFA434"/>
<stop offset="1" stop-color="#FFA434"/>
</linearGradient>
<linearGradient id="paint18_linear_1_11" x1="77.0431" y1="132.482" x2="30.6754" y2="-13.353" gradientUnits="userSpaceOnUse">
<stop stop-color="#FFA434"/>
<stop offset="1" stop-color="#FFA434"/>
</linearGradient>
<linearGradient id="paint19_linear_1_11" x1="77.0434" y1="132.482" x2="30.6757" y2="-13.3531" gradientUnits="userSpaceOnUse">
<stop stop-color="#FFA434"/>
<stop offset="1" stop-color="#FFA434"/>
</linearGradient>
<linearGradient id="paint20_linear_1_11" x1="105.665" y1="132.482" x2="59.2974" y2="-13.353" gradientUnits="userSpaceOnUse">
<stop stop-color="#FFA434"/>
<stop offset="1" stop-color="#FFA434"/>
</linearGradient>
<linearGradient id="paint21_linear_1_11" x1="105.666" y1="132.482" x2="59.2981" y2="-13.3531" gradientUnits="userSpaceOnUse">
<stop stop-color="#FFA434"/>
<stop offset="1" stop-color="#FFA434"/>
</linearGradient>
<linearGradient id="paint22_linear_1_11" x1="134.287" y1="132.482" x2="87.9193" y2="-13.353" gradientUnits="userSpaceOnUse">
<stop stop-color="#FFA434"/>
<stop offset="1" stop-color="#FFA434"/>
</linearGradient>
<linearGradient id="paint23_linear_1_11" x1="134.288" y1="132.482" x2="87.9199" y2="-13.3531" gradientUnits="userSpaceOnUse">
<stop stop-color="#FFA434"/>
<stop offset="1" stop-color="#FFA434"/>
</linearGradient>
<linearGradient id="paint24_linear_1_11" x1="48.4211" y1="152.509" x2="2.05332" y2="6.67359" gradientUnits="userSpaceOnUse">
<stop stop-color="#FFA434"/>
<stop offset="1" stop-color="#FFA434"/>
</linearGradient>
<linearGradient id="paint25_linear_1_11" x1="48.4211" y1="152.509" x2="2.05332" y2="6.67334" gradientUnits="userSpaceOnUse">
<stop stop-color="#FFA434"/>
<stop offset="1" stop-color="#FFA434"/>
</linearGradient>
<linearGradient id="paint26_linear_1_11" x1="77.0431" y1="152.509" x2="30.6754" y2="6.67355" gradientUnits="userSpaceOnUse">
<stop stop-color="#FFA434"/>
<stop offset="1" stop-color="#FFA434"/>
</linearGradient>
<linearGradient id="paint27_linear_1_11" x1="77.0434" y1="152.509" x2="30.6757" y2="6.67331" gradientUnits="userSpaceOnUse">
<stop stop-color="#FFA434"/>
<stop offset="1" stop-color="#FFA434"/>
</linearGradient>
<linearGradient id="paint28_linear_1_11" x1="105.665" y1="152.509" x2="59.2974" y2="6.67355" gradientUnits="userSpaceOnUse">
<stop stop-color="#FFA434"/>
<stop offset="1" stop-color="#FFA434"/>
</linearGradient>
<linearGradient id="paint29_linear_1_11" x1="105.666" y1="152.509" x2="59.2981" y2="6.67331" gradientUnits="userSpaceOnUse">
<stop stop-color="#FFA434"/>
<stop offset="1" stop-color="#FFA434"/>
</linearGradient>
<linearGradient id="paint30_linear_1_11" x1="134.287" y1="152.509" x2="87.9193" y2="6.67355" gradientUnits="userSpaceOnUse">
<stop stop-color="#FFA434"/>
<stop offset="1" stop-color="#FFA434"/>
</linearGradient>
<linearGradient id="paint31_linear_1_11" x1="134.288" y1="152.509" x2="87.9199" y2="6.67331" gradientUnits="userSpaceOnUse">
<stop stop-color="#FFA434"/>
<stop offset="1" stop-color="#FFA434"/>
</linearGradient>
</defs>
</svg>
